<svg xmlns="http://www.w3.org/2000/svg" id="Camada_2" viewBox="0 0 306.33 57.63"><defs><style>.cls-1{fill:#18a3ac;}</style></defs><g id="Camada_1-2"><g><g><path class="cls-1" d="M26.62,35.13h10.79v7.92c-1.12,.34-2.33,.6-3.62,.8-1.29,.2-2.67,.29-4.13,.29-4.44,0-7.79-1.1-10.07-3.29-2.27-2.19-3.41-5.76-3.41-10.7,0-5.28,1.31-9.1,3.92-11.46s6.53-3.54,11.75-3.54c2.75,0,5.45,.17,8.09,.51,2.64,.34,5.2,.98,7.67,1.94V4.04c-2.42-.79-4.98-1.37-7.71-1.77-2.73-.39-5.77-.59-9.14-.59-10.06,0-17.69,2.47-22.92,7.42C2.61,14.04,0,21.06,0,30.16s2.53,15.6,7.58,20.35c5.06,4.75,12.41,7.12,22.08,7.12,5,0,9.23-.51,12.68-1.52,3.45-1.01,6.22-2.16,8.3-3.45V25.36H26.62v9.77Z"></path><path class="cls-1" d="M78.19,16.01c-7.92,0-13.79,1.79-17.61,5.35-3.82,3.57-5.73,8.72-5.73,15.46s1.9,11.96,5.69,15.5c3.79,3.54,9.67,5.31,17.65,5.31s13.96-1.77,17.78-5.31c3.82-3.54,5.73-8.7,5.73-15.5s-1.93-11.89-5.77-15.46c-3.85-3.57-9.76-5.35-17.73-5.35Zm5.6,27.89c-1.15,1.46-3.02,2.19-5.6,2.19s-4.35-.73-5.48-2.19c-1.12-1.46-1.69-3.82-1.69-7.08s.56-5.54,1.69-7.03c1.12-1.49,2.95-2.23,5.48-2.23s4.45,.74,5.6,2.23c1.15,1.49,1.73,3.84,1.73,7.03s-.58,5.62-1.73,7.08Z"></path><path class="cls-1" d="M126.55,45.03c-.84-.7-1.27-1.9-1.27-3.58v-12.89h8.59l.59-11.71h-9.18V4.89l-15.84,3.79v8.17h-5.22v11.71h5.22v14.07c0,4.61,1.21,8.26,3.62,10.95,2.42,2.7,6.29,4.05,11.63,4.05,4.16,0,7.72-.62,10.7-1.85v-10.53c-1.69,.56-3.34,.84-4.97,.84-1.74,0-3.03-.35-3.87-1.05Z"></path><path class="cls-1" d="M174.74,19.88c-3.71-2.58-8.74-3.88-15.08-3.88-3.15,0-6.24,.27-9.27,.8-3.03,.53-5.56,1.19-7.58,1.98v9.52c4.49-1.4,9.04-2.11,13.65-2.11,3.26,0,5.53,.37,6.83,1.09,1.29,.73,1.94,1.89,1.94,3.46v.76h-10.36c-5.67,0-9.91,1.17-12.72,3.5-2.81,2.33-4.21,5.6-4.21,9.82,0,2.92,.65,5.34,1.94,7.25,1.29,1.91,3.02,3.32,5.18,4.21,2.16,.89,4.51,1.35,7.03,1.35,3.26,0,6-.37,8.21-1.1,2.22-.73,4.03-1.71,5.43-2.95l.76,3.2h13.82v-24.6c0-5.62-1.85-9.72-5.56-12.3Zm-9.52,25.28c-.84,.9-1.9,1.66-3.16,2.27-1.26,.62-2.79,.93-4.59,.93-3.43,0-5.14-1.35-5.14-4.04s1.74-4.13,5.22-4.13h7.67v4.97Z"></path><polygon class="cls-1" points="230.18 10.79 230.18 2.53 187.04 2.53 187.04 14.66 209.37 14.66 185.78 48.87 185.78 56.79 230.69 56.79 230.69 44.65 206.84 44.65 230.18 10.79"></polygon><rect class="cls-1" x="237.26" y=".08" width="17.1" height="11.46"></rect><polygon class="cls-1" points="232.71 28.39 238.52 28.39 238.52 56.79 254.36 56.79 254.36 16.85 234.06 16.85 232.71 28.39"></polygon><path class="cls-1" d="M283.05,45.92c-.7,.11-1.42,.17-2.15,.17-1.07,0-1.85-.21-2.36-.63-.5-.42-.76-1.25-.76-2.49V0h-15.84V44.74c0,4.44,1.04,7.69,3.12,9.77,2.08,2.08,5.56,3.12,10.45,3.12,2.13,0,3.89-.14,5.27-.42,1.37-.28,2.79-.7,4.25-1.27v-10.53c-.62,.23-1.28,.39-1.98,.51Z"></path></g><circle class="cls-1" cx="291.61" cy="32.91" r="5.17"></circle><circle class="cls-1" cx="300.28" cy="6.85" r="5.17"></circle><circle class="cls-1" cx="291.61" cy="20.19" r="2.96"></circle><circle class="cls-1" cx="302.53" cy="20.19" r="3.8"></circle></g></g></svg>